<svg xmlns="http://www.w3.org/2000/svg" version="1.1" xmlns:xlink="http://www.w3.org/1999/xlink" xmlns:svgjs="http://svgjs.dev/svgjs" width="1500" height="1500" viewBox="0 0 1500 1500"><rect width="1500" height="1500" fill="#000000"></rect><g transform="matrix(0.6666666666666666,0,0,0.6666666666666666,250,250)"><svg viewBox="0 0 280 280" data-background-color="#77d4fc" preserveAspectRatio="xMidYMid meet" height="1500" width="1500" xmlns="http://www.w3.org/2000/svg" xmlns:xlink="http://www.w3.org/1999/xlink"><g id="tight-bounds" transform="matrix(1,0,0,1,0,0)"><svg viewBox="0 0 280 280" height="280" width="280"><g><svg viewBox="0 0 280 280" height="280" width="280"><g><svg viewBox="0 0 280 280" height="280" width="280"><g id="textblocktransform"><svg viewBox="0 0 280 280" height="280" width="280" id="textblock"><g><svg viewBox="0 0 280 280" height="280" width="280"><g transform="matrix(1,0,0,1,74.00336708925556,104.4508435599347)"><svg viewBox="0 0 131.99326582148888 71.0983128801306" height="71.0983128801306" width="131.99326582148888"><g id="icon-0"><svg xmlns="http://www.w3.org/2000/svg" xmlns:xlink="http://www.w3.org/1999/xlink" version="1.1" x="0" y="0" viewBox="100.5 107.8 649.4 349.8" style="enable-background:new 0 -142.5 850.4 850.4;" xml:space="preserve" height="71.0983128801306" width="131.99326582148888" class="icon-xg-0" data-fill-palette-color="accent" id="xg-0"><polygon points="526.1,152 526.1,201.9 691.5,282.7 526.1,363.6 526.1,413.5 749.9,303.3 749.9,261.5 " fill="#ffffff" data-fill-palette-color="accent"></polygon><polygon points="100.5,303.3 324.3,413.5 324.3,363.6 158.9,282.7 324.3,201.9 324.3,152 100.5,261.5 " fill="#ffffff" data-fill-palette-color="accent"></polygon><polygon points="345.5,457.6 394.8,457.6 504.9,107.8 456,107.8 " fill="#ffffff" data-fill-palette-color="accent"></polygon></svg></g></svg></g><g id="text-0"><path d="M26.106 108.275l-0.398-0.143 0.068-0.189c0.068-0.19 0.051-0.392-0.05-0.607-0.101-0.215-0.235-0.42-0.4-0.614-0.174-0.191-0.374-0.359-0.6-0.505-0.235-0.141-0.456-0.249-0.665-0.324v0l-21.082-7.568c-0.19-0.068-0.41-0.119-0.662-0.153-0.261-0.029-0.513-0.031-0.758-0.004-0.247 0.033-0.472 0.102-0.674 0.207-0.202 0.106-0.342 0.266-0.419 0.481v0l-0.068 0.19-0.398-0.143 2.739-7.631c0.749-2.085 1.785-3.829 3.109-5.23 1.315-1.397 2.792-2.451 4.43-3.16 1.637-0.704 3.357-1.074 5.161-1.112 1.798-0.039 3.553 0.248 5.265 0.863v0c1.611 0.579 3.085 1.432 4.421 2.561 1.333 1.135 2.398 2.502 3.194 4.1 0.798 1.592 1.26 3.395 1.386 5.409 0.128 2.008-0.22 4.159-1.044 6.453v0zM20.339 85.53v0c-1.687-0.606-3.392-0.875-5.114-0.808-1.722 0.067-3.338 0.446-4.849 1.137-1.513 0.698-2.868 1.67-4.065 2.918-1.193 1.255-2.102 2.755-2.729 4.499v0l-0.721 2.01 23.338 8.378 0.752-2.095c0.51-1.422 0.806-2.932 0.887-4.529 0.079-1.591-0.128-3.131-0.62-4.62-0.495-1.483-1.297-2.834-2.408-4.054-1.11-1.219-2.601-2.164-4.471-2.836z" fill="#ffffff" data-fill-palette-color="primary"></path><path d="M71.732 42.696l-3.137 2.608-1.371-1.65-0.02 0.291c-0.096 0.988-0.366 1.924-0.809 2.808-0.453 0.883-1.176 1.737-2.167 2.561v0c-0.754 0.627-1.47 1.078-2.149 1.354-0.688 0.275-1.331 0.399-1.93 0.373-0.608-0.027-1.161-0.179-1.66-0.454-0.504-0.271-0.945-0.633-1.323-1.087v0c-0.609-0.733-0.947-1.544-1.013-2.432-0.065-0.898 0.101-1.874 0.499-2.93 0.393-1.06 0.986-2.217 1.779-3.469 0.793-1.262 1.746-2.647 2.857-4.156v0c-0.741-0.807-1.476-1.345-2.204-1.612-0.734-0.263-1.425-0.37-2.073-0.32-0.653 0.045-1.247 0.207-1.783 0.486-0.532 0.285-0.958 0.56-1.278 0.827v0c-0.563 0.468-0.983 0.961-1.259 1.478-0.277 0.518-0.459 1.045-0.546 1.581-0.087 0.526-0.11 1.034-0.069 1.524 0.045 0.495 0.119 0.936 0.221 1.322v0l-0.286 0.238-1.964-2.362c0.153-0.162 0.27-0.347 0.352-0.554 0.077-0.212 0.187-0.452 0.331-0.721v0c0.218-0.399 0.503-0.955 0.854-1.666 0.357-0.716 1.041-1.494 2.054-2.335v0c1.182-0.983 2.267-1.627 3.253-1.932 0.982-0.31 1.878-0.382 2.688-0.217 0.81 0.165 1.543 0.512 2.2 1.04 0.657 0.528 1.264 1.127 1.822 1.798v0l5.318 6.398c0.356 0.429 0.789 0.75 1.298 0.963 0.51 0.214 0.924 0.188 1.245-0.078v0zM66.019 42.914l0.027-0.677-3.843-4.624-0.267 0.326c-0.409 0.558-0.895 1.255-1.458 2.089-0.563 0.835-1.039 1.702-1.427 2.601-0.379 0.9-0.608 1.784-0.688 2.654-0.08 0.87 0.139 1.617 0.659 2.242v0c0.571 0.687 1.327 1.023 2.267 1.01 0.935-0.009 1.857-0.391 2.766-1.147v0c0.707-0.588 1.201-1.265 1.482-2.03 0.28-0.756 0.44-1.571 0.482-2.444z" fill="#ffffff" data-fill-palette-color="primary"></path><path d="M126.887 10.954l1.422 7.992c0.039 0.218 0.111 0.454 0.218 0.708 0.099 0.248 0.231 0.474 0.397 0.676 0.164 0.196 0.334 0.363 0.509 0.503 0.181 0.138 0.385 0.187 0.609 0.147v0l0.074 0.417-5.335 0.949-0.074-0.417c0.192-0.034 0.355-0.148 0.491-0.343 0.136-0.195 0.247-0.412 0.334-0.652 0.079-0.246 0.125-0.503 0.139-0.772 0.006-0.274-0.011-0.52-0.049-0.738v0l-1.369-7.695c-0.178-0.998-0.471-1.843-0.88-2.533-0.404-0.699-0.885-1.254-1.442-1.667-0.558-0.412-1.155-0.685-1.793-0.817-0.636-0.126-1.258-0.134-1.866-0.026v0c-0.602 0.107-1.178 0.336-1.73 0.686-0.55 0.357-1.018 0.778-1.402 1.263-0.379 0.477-0.666 1.008-0.861 1.595-0.194 0.594-0.241 1.178-0.139 1.754v0l1.635 9.192c0.039 0.218 0.108 0.455 0.209 0.709 0.105 0.247 0.238 0.473 0.396 0.677 0.164 0.196 0.337 0.363 0.519 0.501 0.181 0.138 0.381 0.188 0.599 0.149v0l0.074 0.416-5.374 0.956-0.074-0.416c0.192-0.034 0.355-0.148 0.491-0.343 0.136-0.195 0.247-0.412 0.334-0.653 0.086-0.247 0.132-0.504 0.139-0.771 0.006-0.274-0.011-0.52-0.049-0.738v0l-2.032-11.424c-0.083-0.469-0.23-0.907-0.439-1.313-0.214-0.398-0.654-0.552-1.319-0.461v0l-0.067-0.377 3.898-2.064 0.406 2.281c0.153-0.252 0.358-0.538 0.615-0.856 0.257-0.319 0.58-0.632 0.968-0.94 0.381-0.313 0.842-0.596 1.384-0.849 0.535-0.252 1.189-0.447 1.962-0.585v0c1.296-0.23 2.439-0.205 3.43 0.075 0.991 0.281 1.836 0.72 2.536 1.319 0.708 0.604 1.268 1.302 1.682 2.095 0.407 0.794 0.682 1.59 0.824 2.39z" fill="#ffffff" data-fill-palette-color="primary"></path><path d="M180.324 28.209l-5.216-1.643 0.127-0.404c0.218 0.069 0.432 0.048 0.642-0.061 0.211-0.11 0.4-0.254 0.57-0.433 0.177-0.183 0.331-0.392 0.461-0.626 0.138-0.238 0.241-0.463 0.307-0.674v0l3.498-11.105c0.143-0.455 0.213-0.911 0.21-1.37-0.005-0.452-0.323-0.795-0.954-1.029v0l0.112-0.355 4.412-0.026-4.636 14.717c-0.067 0.211-0.115 0.453-0.144 0.726-0.021 0.268-0.011 0.528 0.029 0.779 0.036 0.244 0.109 0.471 0.218 0.682 0.11 0.211 0.273 0.35 0.491 0.418v0zM181.976 5.467v0c0.169-0.538 0.492-0.936 0.967-1.195 0.484-0.263 0.992-0.311 1.524-0.143v0c0.538 0.169 0.933 0.502 1.185 0.996 0.254 0.488 0.297 1.002 0.128 1.54v0c-0.167 0.532-0.491 0.912-0.972 1.141-0.482 0.235-0.993 0.268-1.53 0.098v0c-0.532-0.167-0.924-0.485-1.179-0.952-0.25-0.459-0.291-0.954-0.123-1.485z" fill="#ffffff" data-fill-palette-color="primary"></path><path d="M236.755 57.561l-10.268-10.356c-0.616 0.771-1.111 1.598-1.485 2.479-0.369 0.877-0.58 1.766-0.631 2.668-0.051 0.902 0.083 1.805 0.401 2.708 0.328 0.903 0.897 1.763 1.706 2.578v0c0.435 0.439 0.958 0.837 1.568 1.197 0.611 0.359 1.244 0.63 1.899 0.812 0.65 0.178 1.312 0.26 1.985 0.244 0.674-0.016 1.29-0.182 1.847-0.498v0l0.27 0.272-2.239 2.219c-0.118-0.119-0.293-0.215-0.526-0.287-0.223-0.072-0.493-0.149-0.811-0.231v0c-0.636-0.155-1.422-0.438-2.361-0.85-0.938-0.412-1.961-1.176-3.066-2.293v0c-0.884-0.892-1.597-1.868-2.139-2.929-0.541-1.061-0.85-2.169-0.925-3.322-0.071-1.149 0.129-2.321 0.599-3.516 0.466-1.199 1.275-2.371 2.429-3.515v0c0.739-0.733 1.611-1.346 2.614-1.84 1.004-0.504 2.059-0.803 3.166-0.898 1.111-0.09 2.25 0.071 3.417 0.484 1.166 0.423 2.302 1.192 3.408 2.308v0c0.988 0.997 1.682 2.035 2.081 3.114 0.404 1.084 0.549 2.165 0.434 3.242-0.114 1.077-0.463 2.142-1.046 3.194-0.579 1.047-1.355 2.052-2.327 3.016zM236.506 45.852v0c-0.69-0.696-1.424-1.16-2.202-1.391-0.787-0.231-1.577-0.308-2.371-0.231-0.788 0.073-1.559 0.288-2.31 0.646-0.756 0.353-1.444 0.775-2.064 1.266v0l8.439 8.51c0.553-0.596 1.017-1.263 1.39-2.002 0.369-0.744 0.605-1.502 0.708-2.276 0.098-0.769 0.028-1.545-0.211-2.33-0.248-0.784-0.708-1.515-1.379-2.192z" fill="#ffffff" data-fill-palette-color="primary"></path><path d="M253.766 107.654l-1.687-5.245 0.403-0.129c0.07 0.217 0.21 0.38 0.421 0.488 0.211 0.108 0.442 0.189 0.692 0.243 0.254 0.045 0.515 0.056 0.783 0.034 0.272-0.031 0.514-0.081 0.725-0.149v0l20.489-6.591c0.454-0.146 0.857-0.35 1.21-0.611 0.359-0.264 0.445-0.732 0.257-1.406v0l0.403-0.129 2.538 3.648-24.046 7.736c-0.211 0.068-0.436 0.168-0.675 0.301-0.233 0.131-0.438 0.293-0.617 0.484-0.172 0.189-0.314 0.383-0.426 0.582-0.113 0.198-0.135 0.403-0.067 0.614v0z" fill="#ffffff" data-fill-palette-color="primary"></path><path d="M2.33 140.035c0-5.905 4.787-10.692 10.691-10.691 5.905 0 10.692 4.787 10.692 10.691 0 5.905-4.787 10.692-10.692 10.692-5.905 0-10.692-4.787-10.691-10.692z" fill="#ffffff" data-fill-palette-color="primary"></path><path d="M256.138 140.035c0-5.905 4.787-10.692 10.692-10.691 5.905 0 10.692 4.787 10.691 10.691 0 5.905-4.787 10.692-10.691 10.692-5.905 0-10.692-4.787-10.692-10.692z" fill="#ffffff" data-fill-palette-color="primary"></path></g><g id="text-1"><path d="M9.545 177.714l0.389-0.14 0.071 0.2c0.066 0.183 0.206 0.326 0.42 0.427 0.215 0.101 0.447 0.172 0.696 0.21 0.252 0.045 0.513 0.048 0.784 0.008 0.265-0.038 0.501-0.094 0.71-0.168v0l20.935-7.501c0.183-0.066 0.383-0.166 0.599-0.3 0.216-0.134 0.409-0.293 0.578-0.475 0.172-0.176 0.303-0.369 0.392-0.579 0.089-0.21 0.096-0.419 0.021-0.628v0l-0.071-0.199 0.389-0.139 2.717 7.585c0.741 2.067 1.049 4.053 0.926 5.959-0.13 1.908-0.6 3.649-1.412 5.224-0.812 1.575-1.895 2.943-3.248 4.105-1.359 1.164-2.888 2.051-4.588 2.661v0c-1.593 0.571-3.26 0.844-5.003 0.818-1.736-0.027-3.41-0.401-5.023-1.12-1.619-0.718-3.112-1.809-4.479-3.274-1.364-1.458-2.454-3.325-3.269-5.601v0zM28.31 191.51v0c1.675-0.6 3.151-1.468 4.428-2.603 1.274-1.141 2.273-2.455 2.996-3.94 0.725-1.479 1.152-3.077 1.279-4.791 0.121-1.712-0.129-3.434-0.749-5.167v0l-0.717-2-23.163 8.299 0.744 2.076c0.507 1.416 1.232 2.761 2.173 4.036 0.948 1.272 2.08 2.322 3.396 3.148 1.31 0.829 2.776 1.359 4.4 1.59 1.617 0.234 3.355 0.018 5.213-0.648z" fill="#ffffff" data-fill-palette-color="secondary"></path><path d="M60.355 250.798l-3.104-2.584 1.359-1.633-0.291 0.019c-0.978 0.094-1.94 0.001-2.886-0.28-0.946-0.281-1.909-0.829-2.89-1.645v0c-0.748-0.623-1.32-1.243-1.715-1.86-0.39-0.613-0.629-1.218-0.716-1.815-0.083-0.593-0.035-1.16 0.145-1.701 0.179-0.541 0.456-1.036 0.829-1.485v0c0.606-0.728 1.337-1.202 2.194-1.423 0.856-0.231 1.837-0.249 2.942-0.055 1.105 0.195 2.343 0.565 3.713 1.113 1.376 0.551 2.902 1.232 4.578 2.041v0c0.645-0.869 1.031-1.684 1.156-2.444 0.135-0.761 0.12-1.456-0.047-2.084-0.167-0.628-0.436-1.176-0.808-1.642-0.367-0.472-0.711-0.841-1.031-1.108v0c-0.557-0.464-1.113-0.783-1.668-0.956-0.56-0.178-1.106-0.261-1.639-0.25-0.533 0.011-1.037 0.081-1.512 0.21-0.469 0.134-0.884 0.286-1.245 0.457v0l-0.286-0.239 1.952-2.345c0.187 0.121 0.39 0.203 0.609 0.245 0.223 0.037 0.474 0.102 0.754 0.195v0c0.427 0.137 1.023 0.314 1.786 0.531 0.759 0.221 1.639 0.749 2.641 1.582v0c1.177 0.979 2.004 1.922 2.483 2.826 0.478 0.905 0.71 1.766 0.693 2.583-0.011 0.821-0.214 1.6-0.608 2.337-0.395 0.737-0.87 1.438-1.424 2.104v0l-5.284 6.347c-0.357 0.428-0.594 0.908-0.712 1.438-0.123 0.536-0.024 0.937 0.296 1.203v0zM59.111 245.255l0.672-0.083 3.821-4.59-0.383-0.201c-0.614-0.301-1.38-0.651-2.299-1.049-0.914-0.403-1.845-0.706-2.793-0.91-0.949-0.214-1.854-0.281-2.715-0.202-0.861 0.079-1.548 0.428-2.064 1.047v0c-0.571 0.686-0.765 1.486-0.581 2.398 0.184 0.913 0.722 1.741 1.614 2.484v0c0.707 0.589 1.458 0.951 2.252 1.089 0.789 0.133 1.615 0.138 2.476 0.017z" fill="#ffffff" data-fill-palette-color="secondary"></path><path d="M127.44 265.134l-1.416 7.932c-0.039 0.218-0.052 0.461-0.038 0.73 0.006 0.274 0.049 0.53 0.128 0.77 0.087 0.241 0.191 0.457 0.314 0.649 0.123 0.192 0.293 0.308 0.511 0.347v0l-0.073 0.407-5.294-0.946 0.072-0.406c0.192 0.034 0.382-0.017 0.57-0.154 0.195-0.136 0.374-0.301 0.539-0.497 0.165-0.196 0.297-0.421 0.397-0.676 0.099-0.248 0.168-0.482 0.207-0.7v0l1.364-7.644c0.176-0.985 0.194-1.868 0.054-2.651-0.145-0.79-0.405-1.474-0.779-2.052-0.382-0.573-0.846-1.031-1.392-1.374-0.547-0.336-1.121-0.558-1.723-0.665v0c-0.601-0.107-1.218-0.091-1.85 0.048-0.633 0.146-1.21 0.377-1.73 0.694-0.527 0.315-0.98 0.715-1.36 1.199-0.385 0.477-0.629 1.003-0.732 1.578v0l-1.628 9.122c-0.039 0.218-0.052 0.461-0.039 0.73 0.006 0.274 0.052 0.531 0.139 0.771 0.08 0.239 0.181 0.455 0.304 0.648 0.123 0.192 0.293 0.308 0.511 0.347v0l-0.073 0.406-5.334-0.952 0.073-0.407c0.192 0.034 0.382-0.017 0.569-0.154 0.195-0.136 0.374-0.301 0.539-0.497 0.158-0.197 0.29-0.422 0.397-0.676 0.099-0.248 0.168-0.482 0.207-0.699v0l2.023-11.333c0.084-0.469 0.094-0.928 0.031-1.376-0.057-0.447-0.413-0.742-1.069-0.886v0l0.065-0.367 4.34-0.586-0.403 2.26c0.231-0.184 0.522-0.381 0.872-0.591 0.343-0.205 0.751-0.384 1.222-0.539 0.464-0.156 0.991-0.26 1.58-0.311 0.589-0.052 1.267-0.009 2.034 0.128v0c1.282 0.229 2.337 0.642 3.165 1.24 0.826 0.605 1.465 1.305 1.916 2.102 0.45 0.803 0.73 1.644 0.839 2.523 0.109 0.879 0.093 1.715-0.049 2.508z" fill="#ffffff" data-fill-palette-color="secondary"></path><path d="M185.529 268.661l-5.178 1.63-0.124-0.394c0.211-0.067 0.372-0.205 0.482-0.416 0.11-0.211 0.186-0.439 0.228-0.684 0.036-0.244 0.042-0.503 0.019-0.777-0.027-0.266-0.074-0.505-0.14-0.716v0l-3.468-11.019c-0.143-0.455-0.346-0.866-0.61-1.233-0.263-0.368-0.716-0.464-1.358-0.291v0l-0.115-0.365 3.578-2.52 4.595 14.603c0.067 0.211 0.168 0.433 0.304 0.665 0.132 0.24 0.282 0.45 0.452 0.628 0.175 0.177 0.368 0.321 0.579 0.431 0.211 0.11 0.421 0.131 0.632 0.065v0zM173.941 249.216v0c-0.167-0.532-0.13-1.04 0.112-1.523 0.242-0.484 0.628-0.81 1.16-0.978v0c0.532-0.167 1.042-0.124 1.53 0.131 0.488 0.255 0.816 0.648 0.984 1.179v0c0.167 0.532 0.12 1.029-0.143 1.492-0.263 0.463-0.66 0.778-1.192 0.945v0c-0.532 0.167-1.031 0.134-1.498-0.099-0.467-0.233-0.785-0.615-0.953-1.147z" fill="#ffffff" data-fill-palette-color="secondary"></path><path d="M237.176 223.036l-10.191 10.277c0.772 0.604 1.598 1.088 2.478 1.45 0.87 0.362 1.754 0.567 2.652 0.615 0.893 0.044 1.787-0.1 2.683-0.431 0.891-0.327 1.739-0.895 2.542-1.706v0c0.43-0.434 0.822-0.958 1.176-1.572 0.349-0.609 0.612-1.237 0.789-1.884 0.173-0.651 0.246-1.311 0.22-1.98-0.017-0.669-0.183-1.279-0.499-1.828v0l0.262-0.265 2.217 2.198c-0.118 0.119-0.21 0.293-0.276 0.521-0.066 0.228-0.14 0.499-0.224 0.813v0c-0.149 0.627-0.424 1.41-0.823 2.347-0.4 0.937-1.148 1.959-2.245 3.064v0c-0.879 0.887-1.845 1.603-2.896 2.149-1.052 0.546-2.147 0.859-3.287 0.94-1.139 0.09-2.303-0.095-3.492-0.555-1.194-0.455-2.363-1.25-3.506-2.385v0c-0.734-0.728-1.353-1.587-1.856-2.577-0.503-0.99-0.809-2.036-0.918-3.137-0.1-1.101 0.055-2.234 0.463-3.399 0.408-1.155 1.161-2.286 2.257-3.392v0c0.979-0.987 2.004-1.687 3.075-2.1 1.067-0.408 2.137-0.557 3.21-0.448 1.073 0.1 2.134 0.432 3.181 0.998 1.037 0.565 2.04 1.328 3.008 2.287zM225.561 223.377v0c-0.685 0.691-1.141 1.427-1.365 2.207-0.22 0.775-0.29 1.556-0.21 2.344 0.079 0.788 0.299 1.554 0.657 2.297 0.359 0.744 0.785 1.421 1.277 2.032v0l8.375-8.447c-0.596-0.543-1.262-0.996-2-1.359-0.737-0.362-1.491-0.59-2.261-0.681-0.765-0.096-1.536-0.02-2.313 0.231-0.773 0.245-1.493 0.704-2.16 1.376z" fill="#ffffff" data-fill-palette-color="secondary"></path><path d="M270.51 177.787l-1.67 5.197-0.393-0.126c0.068-0.211 0.047-0.422-0.061-0.633-0.108-0.211-0.25-0.408-0.423-0.591-0.172-0.189-0.378-0.35-0.617-0.484-0.231-0.138-0.452-0.24-0.663-0.308v0l-20.338-6.534c-0.447-0.144-0.891-0.212-1.33-0.206-0.439 0.007-0.778 0.335-1.015 0.986v0l-0.403-0.129 0.06-4.403 23.867 7.668c0.211 0.068 0.449 0.116 0.715 0.145 0.274 0.025 0.535 0.013 0.783-0.034 0.25-0.054 0.478-0.128 0.686-0.224 0.205-0.089 0.341-0.239 0.409-0.45v0z" fill="#ffffff" data-fill-palette-color="secondary"></path></g></svg></g></svg></g></svg></g><g></g></svg></g><defs></defs></svg><rect width="280" height="280" fill="none" stroke="none" visibility="hidden"></rect></g></svg></g></svg>